<svg width="20" height="20" viewBox="0 0 20 20" fill="none" xmlns="http://www.w3.org/2000/svg">
<path d="M18.1337 6.45682C18.0243 6.02605 17.7457 5.66928 17.3576 5.4605L10.691 2.01624C10.4731 1.90525 10.23 1.84359 9.99999 1.84359C9.75781 1.84359 9.5269 1.90525 9.30901 2.01624L2.64235 5.4605C2.25432 5.66928 1.97568 6.02605 1.8663 6.45682L9.11452 11.7458C9.38188 11.9308 9.68484 12.0294 9.99995 12.0294C10.3151 12.0294 10.618 11.9308 10.8845 11.7467L18.1337 6.45682ZM18.1814 16.6173V8.68376L11.9392 13.2346C11.3698 13.6654 10.6788 13.8741 9.99996 13.8741C9.32113 13.8741 8.63016 13.6654 8.04858 13.2346L1.81858 8.69616V16.6182C1.81858 17.4674 2.4974 18.1554 3.33333 18.1554H16.6667C17.5035 18.1554 18.1814 17.4665 18.1814 16.6173ZM20 6.88755V16.6173C20 18.4866 18.5087 20 16.6667 20H3.33333C1.49131 20 0 18.4866 0 16.6173L0.0121529 6.75292C0.0364573 5.51084 0.727442 4.39112 1.81858 3.82576L8.48524 0.369097C8.95746 0.122431 9.47918 0 10 0C10.5208 0 11.0304 0.123329 11.5148 0.369097L18.1814 3.82576C19.2969 4.40364 20 5.55939 20 6.83839L20 6.88755Z" fill="#023A65"/>
</svg>
